<svg xmlns="http://www.w3.org/2000/svg" viewBox="0 0 48 48">
    <g data-name="Pipet Virus">
        <path fill="#db5669" d="M44.66,11.83c-5.29,5.31-3.86,3.87-6.41,6.42L29.76,9.76,36.2,3.31a6,6,0,0,1,8.46,8.52Z"/>
        <path fill="#f26674" d="M44.66,11.83a6.23,6.23,0,0,1-8.83,0L31.76,7.76,36.2,3.31a6,6,0,0,1,8.46,8.52Z"/>
        <path fill="#7c7d7d"
              d="M39.59 22.41c-7.11 7.11-3.61 3.85-7.13 5.68-.65-.16-.82-.45-2.46-2.09l8-8 1.59 1.59A2 2 0 0 1 39.59 22.41zM30 10l-8 8-1.59-1.59a2 2 0 0 1 .09-2.91l5.09-5.09a2 2 0 0 1 2.82 0z"/>
        <path fill="#dad7e5"
              d="M29,25,15.29,38.71c-2.23,2.23-3.72,4.4-6.79,3.79l-3,3a2.12,2.12,0,0,1-3-3l3-3a4.77,4.77,0,0,1,1.3-4.3L23,19Z"/>
        <path fill="#edebf2"
              d="M26,25,13.29,37.71c-2.23,2.23-3.72,4.4-6.79,3.79C3.39,44.61,3.19,45,2.19,45.1A2.14,2.14,0,0,1,1.88,44c0-1.26.81-1.69,3.62-4.5a4.77,4.77,0,0,1,1.3-4.3L21.5,20.5Z"/>
        <path fill="#dad7e5" d="M47,37a10,10,0,0,1-2,6c-5.76,7.67-18,3.54-18-6a10,10,0,0,1,20,0Z"/>
        <path fill="#747575"
              d="M35,27l-.26.26a9.41,9.41,0,0,0-2.28.83,1.87,1.87,0,0,1-.87-.5A10.38,10.38,0,0,1,35,27Z"/>
        <path fill="#edebf2"
              d="M47,37.17a10,10,0,0,1-2.13,6A10,10,0,0,1,29,34.83a9.9,9.9,0,0,1,2.11-6A10,10,0,0,1,47,37.17Z"/>
        <rect width="11.31" height="3.54" x="21.59" y="13.48" fill="#747575" transform="rotate(-45 27.257 15.25)"/>
        <rect width="11.31" height="4.24" x="24.34" y="15.88" fill="#7c7d7d" transform="rotate(-45 30.006 18.001)"/>
        <rect width="11.31" height="3.54" x="27.09" y="18.98" fill="#747575" transform="rotate(-45 32.756 20.752)"/>
        <path fill="#919191"
              d="M30 10l-6.5 6.5-3-3 5.09-5.09a2 2 0 0 1 2.82 0zM39.93 20.07L35.5 24.5a2.83 2.83 0 0 1-4 0L38 18C39.56 19.56 39.75 19.69 39.93 20.07z"/>
        <rect width="9.19" height="3.54" x="28.9" y="18.23" fill="#7c7d7d" transform="rotate(-45 33.505 20.002)"/>
        <rect width="9.19" height="4.24" x="26.15" y="15.13" fill="#919191" transform="rotate(-45 30.755 17.25)"/>
        <rect width="9.19" height="3.54" x="23.4" y="12.73" fill="#7c7d7d" transform="rotate(-45 28.006 14.5)"/>
        <circle cx="37" cy="37" r="4" fill="#9dcc6b"/>
        <path fill="#231f20"
              d="M37.39,26c3.07-3.07,3.79-3.45,3.79-5a3.59,3.59,0,0,0-1.52-2.75l5.71-5.71a7,7,0,0,0-9.91-9.91l-5.7,5.72-.64-.65a3,3,0,0,0-4.24,0L19.7,12.88a3,3,0,0,0,0,4.24L21.59,19,6.1,34.49a5.71,5.71,0,0,0-1.66,4.66L1.79,41.79a3.13,3.13,0,0,0,4.42,4.42l2.64-2.65a5.74,5.74,0,0,0,4.66-1.66C30.72,24.69,28.87,26.28,29.29,26.71l1.34,1.34c-8.71,6.21-4.3,20,6.37,20a11,11,0,0,0,.39-22ZM28.91,23.5l6.59-6.59L36.59,18,30,24.59Zm-3-3,6.59-6.59,1.59,1.59L27.5,22.09ZM23.41,18,30,11.41l1.09,1.09L24.5,19.09ZM36.88,4.05A5,5,0,1,1,44,11.12l-5.7,5.72L31.17,9.76ZM21.12,14.3,26.3,9.12a1,1,0,0,1,1.4,0l.89.88L22,16.59l-.88-.89A1,1,0,0,1,21.12,14.3ZM25,27.59l-.29-.3a1,1,0,0,0-1.42,1.42l.3.29L22,30.59l-1.29-1.3a1,1,0,0,0-1.42,1.42L20.59,32,19,33.59l-.29-.3a1,1,0,0,0-1.42,1.42l.3.29L16,36.59l-1.29-1.3a1,1,0,0,0-1.42,1.42L14.59,38,13,39.59l-.29-.3a1,1,0,0,0-1.42,1.42l.24.24c-1.91,1.28-3,.08-3.74.84l-3,3a1.12,1.12,0,0,1-1.58-1.58c3.1-3.1,3.41-3.2,3.27-3.91a3.77,3.77,0,0,1,1-3.4L23,20.41,27.59,25ZM31.41,26,38,19.41l.88.89a1,1,0,0,1,0,1.4c-6.22,6.23-3.72,4.06-6.43,5.3C32.3,26.9,32.41,27,31.41,26ZM37,46a9,9,0,1,1,9-9A9,9,0,0,1,37,46Z"/>
        <path fill="#231f20"
              d="M43,36c-2,0-.5.26-1.83-1.75l.78-.78a1,1,0,0,0-1.42-1.42l-.78.78C37.82,31.55,38,32.92,38,31a1,1,0,0,0-2,0c0,2,.26.5-1.75,1.83l-.78-.78a1,1,0,0,0-1.42,1.42l.78.78C31.55,36.18,32.92,36,31,36a1,1,0,0,0,0,2c2,0,.5-.26,1.83,1.75l-.78.78A1,1,0,0,0,33.47,42c1.42-1.42.15-.54,2.53-.05V43a1,1,0,0,0,2,0V41.9c2.32-.47,1.13-1.35,2.53.05A1,1,0,0,0,42,40.53l-.78-.78C42.45,37.82,41.08,38,43,38A1,1,0,0,0,43,36Zm-6,4a3,3,0,1,1,3-3A3,3,0,0,1,37,40Z"/>
        <path fill="#231f20" d="M36 35a1 1 0 0 0 0 2A1 1 0 0 0 36 35zM38 37a1 1 0 0 0 0 2A1 1 0 0 0 38 37z"/>
    </g>
</svg>